<mxfile host="app.diagrams.net" modified="2023-06-01T02:04:26.091Z" agent="Mozilla/5.0 (Windows NT 10.0; Win64; x64) AppleWebKit/537.36 (KHTML, like Gecko) Chrome/113.0.0.0 Safari/537.36" etag="BIzWdna_6gV08cI444Gy" version="21.3.6" type="google">
  <diagram name="Página-1" id="7j0gQQr85ximi554Lmz3">
    <mxGraphModel grid="1" page="1" gridSize="10" guides="1" tooltips="1" connect="1" arrows="1" fold="1" pageScale="1" pageWidth="827" pageHeight="1169" math="0" shadow="0">
      <root>
        <mxCell id="0" />
        <mxCell id="1" parent="0" />
        <mxCell id="JrGGo_6JhGeCnkzlTbma-46" value="" style="ellipse;whiteSpace=wrap;html=1;aspect=fixed;fillColor=#F5F5F5;" vertex="1" parent="1">
          <mxGeometry x="1504" y="-78" width="51.25" height="51.25" as="geometry" />
        </mxCell>
        <mxCell id="JrGGo_6JhGeCnkzlTbma-5" style="edgeStyle=orthogonalEdgeStyle;rounded=0;orthogonalLoop=1;jettySize=auto;html=1;entryX=0;entryY=0.5;entryDx=0;entryDy=0;" edge="1" parent="1" source="JrGGo_6JhGeCnkzlTbma-1" target="JrGGo_6JhGeCnkzlTbma-48">
          <mxGeometry relative="1" as="geometry">
            <mxPoint x="95" y="90" as="targetPoint" />
          </mxGeometry>
        </mxCell>
        <mxCell id="JrGGo_6JhGeCnkzlTbma-1" value="" style="ellipse;whiteSpace=wrap;html=1;aspect=fixed;fillColor=#000000;" vertex="1" parent="1">
          <mxGeometry x="-145" y="70" width="40" height="40" as="geometry" />
        </mxCell>
        <mxCell id="JrGGo_6JhGeCnkzlTbma-2" value="Inicio" style="text;html=1;align=center;verticalAlign=middle;resizable=0;points=[];autosize=1;strokeColor=none;fillColor=none;" vertex="1" parent="1">
          <mxGeometry x="-150" y="110" width="50" height="30" as="geometry" />
        </mxCell>
        <mxCell id="JrGGo_6JhGeCnkzlTbma-3" value="Registro de un dueño" style="text;html=1;align=center;verticalAlign=middle;resizable=0;points=[];autosize=1;strokeColor=none;fillColor=none;" vertex="1" parent="1">
          <mxGeometry x="-190" y="40" width="140" height="30" as="geometry" />
        </mxCell>
        <mxCell id="JrGGo_6JhGeCnkzlTbma-7" style="edgeStyle=orthogonalEdgeStyle;rounded=0;orthogonalLoop=1;jettySize=auto;html=1;entryX=0;entryY=0.5;entryDx=0;entryDy=0;" edge="1" parent="1" source="JrGGo_6JhGeCnkzlTbma-4" target="JrGGo_6JhGeCnkzlTbma-8">
          <mxGeometry relative="1" as="geometry">
            <mxPoint x="490" y="90" as="targetPoint" />
          </mxGeometry>
        </mxCell>
        <mxCell id="JrGGo_6JhGeCnkzlTbma-4" value="Llenar formulario datos de dueño" style="rounded=1;whiteSpace=wrap;html=1;" vertex="1" parent="1">
          <mxGeometry x="260" y="60" width="120" height="60" as="geometry" />
        </mxCell>
        <mxCell id="JrGGo_6JhGeCnkzlTbma-6" value="Abre formulario de registro" style="text;html=1;align=center;verticalAlign=middle;resizable=0;points=[];autosize=1;strokeColor=none;fillColor=none;" vertex="1" parent="1">
          <mxGeometry x="-85" y="70" width="170" height="30" as="geometry" />
        </mxCell>
        <mxCell id="JrGGo_6JhGeCnkzlTbma-10" style="edgeStyle=orthogonalEdgeStyle;rounded=0;orthogonalLoop=1;jettySize=auto;html=1;exitX=0.5;exitY=0;exitDx=0;exitDy=0;entryX=0;entryY=0.5;entryDx=0;entryDy=0;" edge="1" parent="1" source="JrGGo_6JhGeCnkzlTbma-8" target="JrGGo_6JhGeCnkzlTbma-9">
          <mxGeometry relative="1" as="geometry" />
        </mxCell>
        <mxCell id="JrGGo_6JhGeCnkzlTbma-15" style="edgeStyle=orthogonalEdgeStyle;rounded=0;orthogonalLoop=1;jettySize=auto;html=1;exitX=0.5;exitY=1;exitDx=0;exitDy=0;entryX=0;entryY=0.5;entryDx=0;entryDy=0;" edge="1" parent="1" source="JrGGo_6JhGeCnkzlTbma-8" target="JrGGo_6JhGeCnkzlTbma-14">
          <mxGeometry relative="1" as="geometry" />
        </mxCell>
        <mxCell id="JrGGo_6JhGeCnkzlTbma-8" value="" style="rhombus;whiteSpace=wrap;html=1;" vertex="1" parent="1">
          <mxGeometry x="490" y="67.5" width="50" height="45" as="geometry" />
        </mxCell>
        <mxCell id="JrGGo_6JhGeCnkzlTbma-16" style="edgeStyle=orthogonalEdgeStyle;rounded=0;orthogonalLoop=1;jettySize=auto;html=1;exitX=1;exitY=0.5;exitDx=0;exitDy=0;entryX=0;entryY=0.5;entryDx=0;entryDy=0;" edge="1" parent="1" source="JrGGo_6JhGeCnkzlTbma-9" target="JrGGo_6JhGeCnkzlTbma-17">
          <mxGeometry relative="1" as="geometry">
            <mxPoint x="990" y="-37" as="targetPoint" />
          </mxGeometry>
        </mxCell>
        <mxCell id="JrGGo_6JhGeCnkzlTbma-9" value="Se ejecuta la acción de cancelar" style="rounded=1;whiteSpace=wrap;html=1;" vertex="1" parent="1">
          <mxGeometry x="750" y="-67.5" width="120" height="60" as="geometry" />
        </mxCell>
        <mxCell id="JrGGo_6JhGeCnkzlTbma-11" value="Cancelar registro de dueño" style="text;html=1;align=center;verticalAlign=middle;resizable=0;points=[];autosize=1;strokeColor=none;fillColor=none;" vertex="1" parent="1">
          <mxGeometry x="540" y="-67.5" width="170" height="30" as="geometry" />
        </mxCell>
        <mxCell id="JrGGo_6JhGeCnkzlTbma-21" style="edgeStyle=orthogonalEdgeStyle;rounded=0;orthogonalLoop=1;jettySize=auto;html=1;entryX=0;entryY=0.5;entryDx=0;entryDy=0;" edge="1" parent="1" source="JrGGo_6JhGeCnkzlTbma-14" target="JrGGo_6JhGeCnkzlTbma-22">
          <mxGeometry relative="1" as="geometry">
            <mxPoint x="940" y="180" as="targetPoint" />
          </mxGeometry>
        </mxCell>
        <mxCell id="JrGGo_6JhGeCnkzlTbma-14" value="Ejecutar la acción de registrar" style="rounded=1;whiteSpace=wrap;html=1;" vertex="1" parent="1">
          <mxGeometry x="750" y="150" width="120" height="60" as="geometry" />
        </mxCell>
        <mxCell id="JrGGo_6JhGeCnkzlTbma-18" style="edgeStyle=orthogonalEdgeStyle;rounded=0;orthogonalLoop=1;jettySize=auto;html=1;entryX=0;entryY=0.5;entryDx=0;entryDy=0;" edge="1" parent="1" source="JrGGo_6JhGeCnkzlTbma-17" target="JrGGo_6JhGeCnkzlTbma-19">
          <mxGeometry relative="1" as="geometry">
            <mxPoint x="1120" y="-37.5" as="targetPoint" />
          </mxGeometry>
        </mxCell>
        <mxCell id="JrGGo_6JhGeCnkzlTbma-17" value="" style="rhombus;whiteSpace=wrap;html=1;" vertex="1" parent="1">
          <mxGeometry x="990" y="-60" width="50" height="45" as="geometry" />
        </mxCell>
        <mxCell id="JrGGo_6JhGeCnkzlTbma-39" style="edgeStyle=orthogonalEdgeStyle;rounded=0;orthogonalLoop=1;jettySize=auto;html=1;" edge="1" parent="1" source="JrGGo_6JhGeCnkzlTbma-19">
          <mxGeometry relative="1" as="geometry">
            <mxPoint x="1440" y="-60" as="targetPoint" />
          </mxGeometry>
        </mxCell>
        <mxCell id="JrGGo_6JhGeCnkzlTbma-19" value="Borrar formulario" style="rounded=1;whiteSpace=wrap;html=1;" vertex="1" parent="1">
          <mxGeometry x="1140" y="-67.5" width="120" height="60" as="geometry" />
        </mxCell>
        <mxCell id="JrGGo_6JhGeCnkzlTbma-24" style="edgeStyle=orthogonalEdgeStyle;rounded=0;orthogonalLoop=1;jettySize=auto;html=1;exitX=0.5;exitY=0;exitDx=0;exitDy=0;entryX=0;entryY=0.5;entryDx=0;entryDy=0;" edge="1" parent="1" source="JrGGo_6JhGeCnkzlTbma-22" target="JrGGo_6JhGeCnkzlTbma-23">
          <mxGeometry relative="1" as="geometry" />
        </mxCell>
        <mxCell id="JrGGo_6JhGeCnkzlTbma-28" style="edgeStyle=orthogonalEdgeStyle;rounded=0;orthogonalLoop=1;jettySize=auto;html=1;exitX=0.5;exitY=1;exitDx=0;exitDy=0;entryX=0.5;entryY=0;entryDx=0;entryDy=0;" edge="1" parent="1" source="JrGGo_6JhGeCnkzlTbma-22" target="JrGGo_6JhGeCnkzlTbma-26">
          <mxGeometry relative="1" as="geometry" />
        </mxCell>
        <mxCell id="JrGGo_6JhGeCnkzlTbma-22" value="" style="rhombus;whiteSpace=wrap;html=1;" vertex="1" parent="1">
          <mxGeometry x="960" y="157.5" width="50" height="45" as="geometry" />
        </mxCell>
        <mxCell id="JrGGo_6JhGeCnkzlTbma-31" style="edgeStyle=orthogonalEdgeStyle;rounded=0;orthogonalLoop=1;jettySize=auto;html=1;exitX=1;exitY=0.5;exitDx=0;exitDy=0;entryX=0.75;entryY=1;entryDx=0;entryDy=0;" edge="1" parent="1" source="JrGGo_6JhGeCnkzlTbma-23" target="JrGGo_6JhGeCnkzlTbma-4">
          <mxGeometry relative="1" as="geometry">
            <Array as="points">
              <mxPoint x="1340" y="120" />
              <mxPoint x="1340" y="530" />
              <mxPoint x="350" y="530" />
            </Array>
          </mxGeometry>
        </mxCell>
        <mxCell id="JrGGo_6JhGeCnkzlTbma-23" value="Mostrar mensaje con detalles de error" style="rounded=1;whiteSpace=wrap;html=1;" vertex="1" parent="1">
          <mxGeometry x="1100" y="90" width="120" height="60" as="geometry" />
        </mxCell>
        <mxCell id="JrGGo_6JhGeCnkzlTbma-25" value="Datos invalidos" style="text;html=1;align=center;verticalAlign=middle;resizable=0;points=[];autosize=1;strokeColor=none;fillColor=none;" vertex="1" parent="1">
          <mxGeometry x="970" y="88" width="100" height="30" as="geometry" />
        </mxCell>
        <mxCell id="JrGGo_6JhGeCnkzlTbma-32" style="edgeStyle=orthogonalEdgeStyle;rounded=0;orthogonalLoop=1;jettySize=auto;html=1;entryX=0;entryY=0.5;entryDx=0;entryDy=0;" edge="1" parent="1" source="JrGGo_6JhGeCnkzlTbma-26" target="JrGGo_6JhGeCnkzlTbma-30">
          <mxGeometry relative="1" as="geometry" />
        </mxCell>
        <mxCell id="JrGGo_6JhGeCnkzlTbma-34" style="edgeStyle=orthogonalEdgeStyle;rounded=0;orthogonalLoop=1;jettySize=auto;html=1;exitX=0.5;exitY=1;exitDx=0;exitDy=0;entryX=0;entryY=0.5;entryDx=0;entryDy=0;" edge="1" parent="1" source="JrGGo_6JhGeCnkzlTbma-26" target="JrGGo_6JhGeCnkzlTbma-35">
          <mxGeometry relative="1" as="geometry">
            <mxPoint x="1060" y="480" as="targetPoint" />
          </mxGeometry>
        </mxCell>
        <mxCell id="JrGGo_6JhGeCnkzlTbma-26" value="" style="rhombus;whiteSpace=wrap;html=1;" vertex="1" parent="1">
          <mxGeometry x="960" y="280" width="50" height="45" as="geometry" />
        </mxCell>
        <mxCell id="JrGGo_6JhGeCnkzlTbma-29" value="Datos válidos" style="text;html=1;align=center;verticalAlign=middle;resizable=0;points=[];autosize=1;strokeColor=none;fillColor=none;" vertex="1" parent="1">
          <mxGeometry x="890" y="230" width="100" height="30" as="geometry" />
        </mxCell>
        <mxCell id="JrGGo_6JhGeCnkzlTbma-40" style="edgeStyle=orthogonalEdgeStyle;rounded=0;orthogonalLoop=1;jettySize=auto;html=1;entryX=0.5;entryY=1;entryDx=0;entryDy=0;" edge="1" parent="1" source="JrGGo_6JhGeCnkzlTbma-30" target="JrGGo_6JhGeCnkzlTbma-17">
          <mxGeometry relative="1" as="geometry">
            <mxPoint x="1425" y="-15" as="targetPoint" />
            <Array as="points">
              <mxPoint x="1370" y="303" />
              <mxPoint x="1370" y="40" />
              <mxPoint x="1015" y="40" />
            </Array>
          </mxGeometry>
        </mxCell>
        <mxCell id="JrGGo_6JhGeCnkzlTbma-30" value="Mostrar mensaje de que ese dueño ya existente" style="rounded=1;whiteSpace=wrap;html=1;" vertex="1" parent="1">
          <mxGeometry x="1160" y="272.5" width="120" height="60" as="geometry" />
        </mxCell>
        <mxCell id="JrGGo_6JhGeCnkzlTbma-33" value="Existe un dueño&lt;br&gt;con los mismos datos" style="text;html=1;align=center;verticalAlign=middle;resizable=0;points=[];autosize=1;strokeColor=none;fillColor=none;" vertex="1" parent="1">
          <mxGeometry x="1010" y="260" width="140" height="40" as="geometry" />
        </mxCell>
        <mxCell id="JrGGo_6JhGeCnkzlTbma-38" style="edgeStyle=orthogonalEdgeStyle;rounded=0;orthogonalLoop=1;jettySize=auto;html=1;" edge="1" parent="1" source="JrGGo_6JhGeCnkzlTbma-35">
          <mxGeometry relative="1" as="geometry">
            <mxPoint x="1470" y="390" as="targetPoint" />
          </mxGeometry>
        </mxCell>
        <mxCell id="JrGGo_6JhGeCnkzlTbma-35" value="Guardar nuevo&lt;br&gt;&amp;nbsp;dueño" style="rounded=1;whiteSpace=wrap;html=1;" vertex="1" parent="1">
          <mxGeometry x="1160" y="430" width="120" height="60" as="geometry" />
        </mxCell>
        <mxCell id="JrGGo_6JhGeCnkzlTbma-36" value="No existe un dueño&lt;br&gt;con los mismos datos" style="text;html=1;align=center;verticalAlign=middle;resizable=0;points=[];autosize=1;strokeColor=none;fillColor=none;" vertex="1" parent="1">
          <mxGeometry x="1000" y="420" width="140" height="40" as="geometry" />
        </mxCell>
        <mxCell id="JrGGo_6JhGeCnkzlTbma-42" style="edgeStyle=orthogonalEdgeStyle;rounded=0;orthogonalLoop=1;jettySize=auto;html=1;exitX=0.25;exitY=0;exitDx=0;exitDy=0;" edge="1" parent="1" source="JrGGo_6JhGeCnkzlTbma-37">
          <mxGeometry relative="1" as="geometry">
            <mxPoint x="1440" y="-20" as="targetPoint" />
            <Array as="points">
              <mxPoint x="1420" y="333" />
              <mxPoint x="1420" y="-20" />
            </Array>
          </mxGeometry>
        </mxCell>
        <mxCell id="JrGGo_6JhGeCnkzlTbma-37" value="Mostrar mensaje de exito" style="rounded=1;whiteSpace=wrap;html=1;" vertex="1" parent="1">
          <mxGeometry x="1410" y="332.5" width="120" height="60" as="geometry" />
        </mxCell>
        <mxCell id="JrGGo_6JhGeCnkzlTbma-43" value="" style="endArrow=none;html=1;rounded=0;strokeWidth=8;" edge="1" parent="1">
          <mxGeometry width="50" height="50" relative="1" as="geometry">
            <mxPoint x="1450" y="-7.5" as="sourcePoint" />
            <mxPoint x="1450" y="-100" as="targetPoint" />
          </mxGeometry>
        </mxCell>
        <mxCell id="JrGGo_6JhGeCnkzlTbma-44" value="" style="endArrow=classic;html=1;rounded=0;" edge="1" parent="1">
          <mxGeometry width="50" height="50" relative="1" as="geometry">
            <mxPoint x="1460" y="-50" as="sourcePoint" />
            <mxPoint x="1500" y="-50" as="targetPoint" />
          </mxGeometry>
        </mxCell>
        <mxCell id="JrGGo_6JhGeCnkzlTbma-45" value="" style="ellipse;whiteSpace=wrap;html=1;aspect=fixed;fillColor=#000000;" vertex="1" parent="1">
          <mxGeometry x="1510" y="-72.5" width="40" height="40" as="geometry" />
        </mxCell>
        <mxCell id="JrGGo_6JhGeCnkzlTbma-47" value="Fin" style="text;html=1;align=center;verticalAlign=middle;resizable=0;points=[];autosize=1;strokeColor=none;fillColor=none;" vertex="1" parent="1">
          <mxGeometry x="1510" y="-112" width="40" height="30" as="geometry" />
        </mxCell>
        <mxCell id="JrGGo_6JhGeCnkzlTbma-49" style="edgeStyle=orthogonalEdgeStyle;rounded=0;orthogonalLoop=1;jettySize=auto;html=1;entryX=0;entryY=0.5;entryDx=0;entryDy=0;" edge="1" parent="1" source="JrGGo_6JhGeCnkzlTbma-48" target="JrGGo_6JhGeCnkzlTbma-4">
          <mxGeometry relative="1" as="geometry" />
        </mxCell>
        <mxCell id="JrGGo_6JhGeCnkzlTbma-48" value="Abrir formulario para registro de dueño" style="rounded=1;whiteSpace=wrap;html=1;" vertex="1" parent="1">
          <mxGeometry x="100" y="60" width="120" height="60" as="geometry" />
        </mxCell>
      </root>
    </mxGraphModel>
  </diagram>
</mxfile>
